<svg width="200" height="34" viewBox="0 0 200 34" fill="none" xmlns="http://www.w3.org/2000/svg">
<path d="M88.0315 4.40945C87.7953 3.22835 87.2441 2.44095 86.5355 1.9685C85.8268 1.49606 84.8032 1.25984 83.6221 1.25984C82.7559 1.25984 82.0473 1.41732 81.4174 1.73228C80.7874 2.04724 80.315 2.51969 79.9213 3.07087C79.5276 3.62205 79.2126 4.25197 79.0552 4.96063C78.8977 5.66929 78.7402 6.45669 78.7402 7.2441C78.7402 8.0315 78.8189 8.74016 78.9764 9.44882C79.1339 10.1575 79.4489 10.7874 79.7638 11.4173C80.1575 11.9685 80.63 12.4409 81.2599 12.8346C81.8898 13.1496 82.6772 13.3858 83.7008 13.3858C84.3307 13.3858 84.8819 13.3071 85.3544 13.0709C85.8268 12.9134 86.2992 12.5984 86.6929 12.2835C87.0866 11.9685 87.4016 11.5748 87.6378 11.1024C87.8741 10.6299 88.1103 10.1575 88.189 9.6063H89.6063C89.4489 10.2362 89.2126 10.8661 88.8977 11.4173C88.5827 11.9685 88.189 12.5197 87.7166 12.9134C87.2441 13.3858 86.6142 13.7008 85.9055 13.937C85.1969 14.1732 84.4095 14.3307 83.4646 14.3307C82.3622 14.3307 81.4174 14.1732 80.7087 13.7795C79.9213 13.3858 79.2914 12.9134 78.8189 12.2047C78.3465 11.5748 77.9528 10.7874 77.7166 9.92126C77.4804 9.05512 77.4016 8.18898 77.4016 7.16536C77.4016 5.90551 77.5591 4.80315 77.8741 3.85827C78.189 2.99213 78.6615 2.20472 79.2914 1.65354C79.8426 1.10236 80.5512 0.708661 81.3386 0.393701C82.126 0.15748 82.9922 0 83.937 0C84.6457 0 85.3544 0.0787411 85.9843 0.236221C86.6142 0.393702 87.1654 0.708662 87.6378 1.02362C88.1103 1.41732 88.504 1.81102 88.8189 2.3622C89.1339 2.91339 89.3701 3.54331 89.4489 4.17323H88.0315V4.40945ZM96.063 14.252C95.4331 14.252 94.8032 14.0945 94.252 13.937C93.7008 13.7795 93.1496 13.3858 92.7559 12.9921C92.3622 12.5984 91.9685 12.0472 91.7323 11.4173C91.4961 10.7874 91.3386 10 91.3386 9.2126C91.3386 8.50394 91.4174 7.79528 91.6536 7.2441C91.8111 6.61417 92.126 6.06299 92.5197 5.59055C92.9134 5.11811 93.3859 4.72441 94.0158 4.48819C94.567 4.25197 95.2756 4.09449 96.063 4.09449C96.8504 4.09449 97.5591 4.25197 98.1103 4.48819C98.6614 4.72441 99.2126 5.11811 99.6063 5.59055C100 6.06299 100.315 6.61417 100.472 7.2441C100.63 7.87402 100.787 8.50394 100.787 9.29134C100.787 10.0787 100.709 10.7874 100.472 11.4173C100.236 12.0472 99.9213 12.5984 99.5276 13.0709C99.1339 13.5433 98.5827 13.8583 98.0315 14.0945C97.4016 14.0945 96.7717 14.252 96.063 14.252ZM99.5276 9.13386C99.5276 8.58268 99.4489 8.0315 99.3701 7.48032C99.2126 7.00787 99.0552 6.53543 98.7402 6.14173C98.504 5.74803 98.1103 5.51181 97.7166 5.27559C97.3229 5.03937 96.7717 4.96063 96.1418 4.96063C95.5118 4.96063 94.9607 5.03937 94.567 5.27559C94.0945 5.51181 93.7796 5.82677 93.4646 6.22047C93.2284 6.61417 92.9922 7.00788 92.8347 7.55906C92.6772 8.0315 92.6772 8.58268 92.6772 9.05512C92.6772 9.68504 92.7559 10.2362 92.9134 10.7087C93.0709 11.1811 93.3071 11.6535 93.5433 12.0472C93.8583 12.4409 94.1733 12.6772 94.6457 12.9134C95.0394 13.1496 95.5906 13.2283 96.1418 13.2283C96.7717 13.2283 97.3229 13.1496 97.7166 12.9134C98.189 12.6772 98.504 12.3622 98.8189 11.9685C99.0552 11.5748 99.2914 11.1811 99.4489 10.6299C99.4489 10.1575 99.5276 9.6063 99.5276 9.13386ZM104.095 14.0157H102.913V4.25197H104.095V5.59055C104.567 5.11811 105.039 4.72441 105.591 4.40945C106.063 4.09449 106.693 3.93701 107.402 3.93701C108.032 3.93701 108.583 4.01575 109.134 4.25197C109.685 4.48819 110.158 4.80315 110.472 5.35433C110.709 5.66929 110.866 6.06299 110.945 6.45669C111.024 6.85039 111.024 7.2441 111.024 7.6378V14.0157H109.843V7.6378C109.843 6.77165 109.606 6.14173 109.213 5.66929C108.819 5.19685 108.11 5.03937 107.165 5.03937C106.772 5.03937 106.457 5.11811 106.142 5.19685C105.827 5.27559 105.591 5.43307 105.354 5.59055C105.118 5.74803 104.882 5.98425 104.724 6.22047C104.567 6.45669 104.409 6.69291 104.331 6.92913C104.252 7.24409 104.173 7.55906 104.095 7.79528C104.095 8.11024 104.095 8.4252 104.095 8.74016V14.0157ZM114.567 10.9449C114.724 11.811 115.118 12.3622 115.591 12.7559C116.063 13.0709 116.772 13.3071 117.638 13.3071C118.032 13.3071 118.425 13.2283 118.74 13.1496C119.055 13.0709 119.291 12.9134 119.528 12.7559C119.764 12.5984 119.921 12.3622 120 12.2047C120.079 11.9685 120.158 11.7323 120.158 11.4961C120.158 11.0236 120 10.6299 119.685 10.4724C119.37 10.2362 118.976 10.0787 118.504 9.92126C118.032 9.76378 117.48 9.68504 116.929 9.6063C116.378 9.52756 115.827 9.37008 115.354 9.2126C114.882 9.05512 114.488 8.74016 114.173 8.4252C113.858 8.11024 113.701 7.55905 113.701 6.92913C113.701 6.14173 114.016 5.43307 114.646 4.96063C115.276 4.40945 116.142 4.17323 117.323 4.17323C118.425 4.17323 119.291 4.40945 120 4.88189C120.709 5.35433 121.102 6.14173 121.26 7.2441H120.079C120 6.45669 119.685 5.98425 119.213 5.66929C118.74 5.35433 118.11 5.19685 117.323 5.19685C116.614 5.19685 115.984 5.35433 115.591 5.66929C115.197 5.98425 115.039 6.37795 115.039 6.85039C115.039 7.32284 115.197 7.6378 115.512 7.87402C115.827 8.11024 116.221 8.26772 116.693 8.4252C117.165 8.58268 117.717 8.66142 118.268 8.8189C118.819 8.89764 119.37 9.05512 119.843 9.29134C120.315 9.52756 120.709 9.76378 121.024 10.1575C121.339 10.4724 121.496 11.0236 121.496 11.6535C121.496 12.126 121.417 12.5197 121.181 12.9134C120.945 13.3071 120.709 13.5433 120.315 13.7795C119.921 14.0157 119.528 14.1732 118.976 14.3307C118.504 14.4882 117.953 14.4882 117.323 14.4882C116.693 14.4882 116.221 14.4095 115.748 14.252C115.276 14.0945 114.882 13.8583 114.567 13.5433C114.252 13.2283 114.016 12.9134 113.78 12.5197C113.622 12.126 113.465 11.6535 113.465 11.2598H114.567V10.9449ZM130.63 4.25197H131.811V14.0157H130.63V12.6772C130.472 12.8346 130.315 13.0709 130.079 13.2283C129.921 13.3858 129.685 13.622 129.37 13.7795C129.134 13.937 128.819 14.0945 128.504 14.1732C128.189 14.252 127.795 14.3307 127.323 14.3307C126.614 14.3307 126.063 14.252 125.591 14.0945C125.118 13.937 124.724 13.622 124.488 13.3071C124.173 12.9921 124.016 12.5984 123.858 12.2047C123.701 11.811 123.701 11.3386 123.701 10.7874V4.40945H124.882V10.7874C124.882 11.6535 125.118 12.2835 125.512 12.6772C125.906 13.1496 126.614 13.3071 127.48 13.3071C127.953 13.3071 128.425 13.2283 128.819 13.0709C129.213 12.9134 129.528 12.5984 129.764 12.2835C130 11.9685 130.236 11.5748 130.394 11.1024C130.551 10.6299 130.63 10.1575 130.63 9.6063V4.25197ZM134.803 14.0157V0.157481H135.984V14.0157H134.803ZM142.598 14.0157C142.441 14.0157 142.283 14.0945 142.047 14.1732C141.811 14.252 141.575 14.252 141.26 14.252C140.709 14.252 140.236 14.0945 139.921 13.8583C139.606 13.5433 139.449 13.0709 139.449 12.3622V5.27559H138.032V4.33071H139.449V1.65354H140.63V4.33071H142.52V5.27559H140.63V11.9685C140.63 12.2047 140.63 12.4409 140.63 12.5984C140.63 12.7559 140.709 12.9134 140.709 12.9921C140.787 13.0709 140.866 13.1496 141.024 13.2283C141.181 13.3071 141.339 13.3071 141.575 13.3071C141.732 13.3071 141.89 13.3071 142.047 13.3071C142.205 13.3071 142.362 13.2283 142.52 13.2283V14.0157H142.598ZM148.504 14.252C147.874 14.252 147.244 14.0945 146.693 13.937C146.142 13.7008 145.591 13.3858 145.197 12.9921C144.803 12.5984 144.409 12.0472 144.173 11.4173C143.937 10.7874 143.78 10 143.78 9.2126C143.78 8.50394 143.858 7.79528 144.095 7.2441C144.252 6.61417 144.567 6.06299 144.961 5.59055C145.354 5.11811 145.827 4.72441 146.457 4.48819C147.008 4.25197 147.717 4.09449 148.504 4.09449C149.291 4.09449 150 4.25197 150.551 4.48819C151.102 4.72441 151.654 5.11811 152.047 5.59055C152.441 6.06299 152.756 6.61417 152.913 7.2441C153.071 7.87402 153.228 8.50394 153.228 9.29134C153.228 10.0787 153.15 10.7874 152.913 11.4173C152.677 12.0472 152.362 12.5984 151.969 13.0709C151.575 13.5433 151.024 13.8583 150.472 14.0945C149.843 14.0945 149.213 14.252 148.504 14.252ZM151.969 9.13386C151.969 8.58268 151.89 8.0315 151.811 7.48032C151.654 7.00787 151.496 6.53543 151.181 6.14173C150.945 5.74803 150.551 5.51181 150.158 5.27559C149.764 5.03937 149.213 4.96063 148.583 4.96063C147.953 4.96063 147.402 5.03937 147.008 5.27559C146.535 5.51181 146.221 5.82677 145.906 6.22047C145.669 6.61417 145.433 7.00788 145.276 7.55906C145.118 8.0315 145.118 8.58268 145.118 9.05512C145.118 9.68504 145.197 10.2362 145.354 10.7087C145.512 11.1811 145.748 11.6535 145.984 12.0472C146.299 12.4409 146.614 12.6772 147.087 12.9134C147.559 13.1496 148.032 13.2283 148.583 13.2283C149.213 13.2283 149.764 13.1496 150.158 12.9134C150.63 12.6772 150.945 12.3622 151.26 11.9685C151.496 11.5748 151.732 11.1811 151.89 10.6299C151.89 10.1575 151.969 9.6063 151.969 9.13386ZM156.614 14.0157H155.433V4.25197H156.614V6.06299H156.693C157.008 5.27559 157.48 4.72441 157.953 4.40945C158.504 4.09449 159.134 3.93701 160 3.93701V5.19685C159.37 5.19685 158.819 5.27559 158.346 5.51181C157.953 5.74803 157.559 5.98425 157.323 6.37795C157.087 6.77165 156.929 7.16536 156.772 7.6378C156.693 8.11024 156.614 8.66142 156.614 9.2126V14.0157ZM161.26 2.75591L163.465 0.157481H164.961L162.362 2.75591H161.26ZM162.126 14.0157V4.25197H163.307V14.0157H162.126ZM171.024 8.34646C171.26 8.34646 171.496 8.26772 171.811 8.26772C172.126 8.18898 172.362 8.11024 172.598 8.0315C172.756 7.95276 172.913 7.79528 172.992 7.55906C173.071 7.32284 173.071 7.16536 173.071 7.00788C173.071 6.45669 172.913 5.98425 172.52 5.59055C172.126 5.19685 171.496 5.03937 170.551 5.03937C170.158 5.03937 169.764 5.03937 169.449 5.11811C169.134 5.19685 168.819 5.27559 168.583 5.51181C168.346 5.74803 168.11 5.90551 167.953 6.22047C167.795 6.53543 167.717 6.85039 167.638 7.2441H166.457C166.457 6.69291 166.614 6.14173 166.85 5.74803C167.087 5.35433 167.402 5.03937 167.795 4.72441C168.189 4.48819 168.583 4.25197 169.055 4.17323C169.528 4.01575 170.079 4.01575 170.63 4.01575C171.102 4.01575 171.654 4.09449 172.047 4.17323C172.52 4.25197 172.913 4.48819 173.228 4.64567C173.543 4.88189 173.858 5.19685 174.016 5.59055C174.173 5.98425 174.331 6.45669 174.331 7.00788V12.2835C174.331 12.7559 174.409 12.9921 174.567 13.1496C174.724 13.3071 175.039 13.2283 175.591 13.0709V13.937C175.512 13.937 175.354 14.0157 175.197 14.0157C175.039 14.0945 174.882 14.0945 174.646 14.0945C174.488 14.0945 174.252 14.0945 174.095 14.0157C173.937 14.0157 173.78 13.937 173.622 13.8583C173.465 13.7795 173.386 13.622 173.307 13.5433C173.228 13.3858 173.15 13.3071 173.15 13.1496C173.15 12.9921 173.071 12.8346 173.071 12.6772C172.598 13.2283 171.969 13.622 171.339 13.8583C170.709 14.0945 170 14.252 169.291 14.252C168.819 14.252 168.425 14.1732 168.032 14.0945C167.638 14.0157 167.244 13.7795 166.929 13.5433C166.614 13.3071 166.378 12.9921 166.221 12.6772C166.063 12.3622 165.984 11.8898 165.984 11.4173C165.984 9.76378 167.165 8.8189 169.528 8.50394L171.024 8.34646ZM172.992 8.89764C172.52 9.13386 171.969 9.2126 171.496 9.29134C171.024 9.37008 170.472 9.37008 170 9.44882C169.134 9.52756 168.425 9.68504 167.874 10C167.402 10.315 167.087 10.7874 167.087 11.4961C167.087 11.811 167.165 12.0472 167.244 12.2835C167.402 12.5197 167.559 12.6772 167.717 12.8346C167.953 12.9921 168.189 13.0709 168.425 13.1496C168.661 13.2283 168.976 13.2283 169.213 13.2283C169.685 13.2283 170.158 13.1496 170.551 13.0709C171.024 12.9921 171.417 12.7559 171.732 12.5197C172.047 12.2835 172.362 11.9685 172.598 11.6535C172.835 11.2598 172.913 10.8661 172.913 10.3937V8.89764H172.992ZM177.953 10.9449C178.11 11.811 178.504 12.3622 178.976 12.7559C179.449 13.0709 180.158 13.3071 181.024 13.3071C181.417 13.3071 181.811 13.2283 182.126 13.1496C182.441 13.0709 182.677 12.9134 182.913 12.7559C183.15 12.5984 183.307 12.3622 183.386 12.2047C183.465 11.9685 183.543 11.7323 183.543 11.4961C183.543 11.0236 183.386 10.6299 183.071 10.4724C182.756 10.2362 182.362 10.0787 181.89 9.92126C181.417 9.76378 180.866 9.68504 180.315 9.6063C179.764 9.52756 179.213 9.37008 178.74 9.2126C178.268 9.05512 177.874 8.74016 177.559 8.4252C177.244 8.11024 177.087 7.55905 177.087 6.92913C177.087 6.14173 177.402 5.43307 178.032 4.96063C178.661 4.40945 179.528 4.17323 180.709 4.17323C181.811 4.17323 182.677 4.40945 183.386 4.88189C184.095 5.35433 184.488 6.14173 184.646 7.2441H183.465C183.386 6.45669 183.071 5.98425 182.598 5.66929C182.126 5.35433 181.496 5.19685 180.709 5.19685C180 5.19685 179.37 5.35433 178.976 5.66929C178.583 5.98425 178.425 6.37795 178.425 6.85039C178.425 7.32284 178.583 7.6378 178.898 7.87402C179.213 8.11024 179.606 8.26772 180.079 8.4252C180.551 8.58268 181.102 8.66142 181.654 8.8189C182.205 8.89764 182.756 9.05512 183.228 9.29134C183.701 9.52756 184.095 9.76378 184.409 10.1575C184.724 10.4724 184.882 11.0236 184.882 11.6535C184.882 12.126 184.803 12.5197 184.567 12.9134C184.331 13.3071 184.095 13.5433 183.701 13.7795C183.307 14.0157 182.913 14.1732 182.362 14.3307C181.89 14.4882 181.339 14.4882 180.709 14.4882C180.079 14.4882 179.606 14.4095 179.134 14.252C178.661 14.0945 178.268 13.8583 177.953 13.5433C177.638 13.2283 177.402 12.9134 177.165 12.5197C177.008 12.126 176.85 11.6535 176.85 11.2598H177.953V10.9449Z" fill="white"/>
<path d="M77.3229 29.1339V15.6693H86.693V16.7717H78.6615V21.6535H85.9055V22.7559H78.6615V28.1102H86.9292V29.2126H77.3229V29.1339ZM90.1575 29.1339H88.9764V19.4488H90.1575V20.9449C90.4725 20.3937 90.8662 19.9213 91.4174 19.685C91.9685 19.3701 92.5985 19.2126 93.2284 19.2126C93.7008 19.2126 94.0945 19.2913 94.4095 19.3701C94.7244 19.4488 95.0394 19.6063 95.2756 19.7638C95.5118 19.9213 95.6693 20.1575 95.8268 20.315C95.9843 20.5512 96.1418 20.7874 96.2205 21.0236C96.5355 20.3937 97.0079 19.9213 97.5591 19.6063C98.1103 19.2913 98.7402 19.1339 99.5276 19.1339C100.236 19.1339 100.787 19.2126 101.181 19.4488C101.575 19.685 101.89 19.9213 102.126 20.315C102.362 20.7087 102.52 21.1024 102.598 21.5748C102.677 22.0472 102.677 22.5197 102.677 22.9921V29.1339H101.496V22.4409C101.496 21.7323 101.339 21.1811 101.024 20.7874C100.709 20.3937 100.158 20.1575 99.2914 20.1575C98.8977 20.1575 98.4252 20.2362 98.0315 20.3937C97.6378 20.5512 97.3229 20.8661 97.0079 21.2598C96.8504 21.4173 96.7717 21.5748 96.693 21.811C96.6142 22.0472 96.5355 22.2835 96.4567 22.5197C96.378 22.7559 96.378 22.9921 96.378 23.2284C96.378 23.4646 96.378 23.7008 96.378 23.8583V29.0551H95.1969V22.3622C95.1969 21.6535 95.0394 21.1024 94.7245 20.7087C94.4095 20.315 93.8583 20.0787 92.9922 20.0787C92.5985 20.0787 92.126 20.1575 91.7323 20.315C91.3386 20.4724 91.0237 20.7874 90.7087 21.1811C90.5512 21.3386 90.4725 21.4961 90.3937 21.7323C90.315 21.9685 90.2363 22.2047 90.1575 22.4409C90.0788 22.6772 90.0788 22.9134 90.0788 23.1496C90.0788 23.3858 90.0788 23.6221 90.0788 23.7795V29.1339H90.1575ZM106.693 33.3071H105.512V19.4488H106.693V21.1811C106.85 20.8661 107.087 20.5512 107.323 20.315C107.559 20.0787 107.874 19.8425 108.189 19.685C108.504 19.5276 108.819 19.3701 109.213 19.2913C109.528 19.2126 109.921 19.1339 110.236 19.1339C111.024 19.1339 111.732 19.2913 112.362 19.5276C112.913 19.7638 113.386 20.1575 113.78 20.6299C114.173 21.1024 114.409 21.6535 114.567 22.2835C114.724 22.9134 114.803 23.5433 114.803 24.252C114.803 24.9606 114.724 25.5906 114.567 26.2205C114.409 26.8504 114.095 27.4016 113.701 27.874C113.307 28.3465 112.835 28.7402 112.284 28.9764C111.732 29.2126 111.024 29.3701 110.315 29.3701C109.606 29.3701 108.898 29.2126 108.268 28.8976C107.638 28.5827 107.087 28.1102 106.693 27.5591V33.3071ZM106.693 24.3307C106.693 24.8819 106.772 25.4331 106.929 25.9055C107.087 26.378 107.323 26.8504 107.638 27.1654C107.953 27.5591 108.268 27.7953 108.74 28.0315C109.134 28.2677 109.606 28.3465 110.158 28.3465C110.787 28.3465 111.26 28.2677 111.732 28.0315C112.205 27.7953 112.52 27.4803 112.835 27.0866C113.15 26.6929 113.307 26.2205 113.465 25.6693C113.622 25.1181 113.622 24.5669 113.622 23.937C113.622 23.3071 113.543 22.7559 113.386 22.2835C113.228 21.811 112.992 21.4173 112.677 21.1024C112.362 20.7874 111.969 20.5512 111.575 20.3937C111.181 20.2362 110.709 20.1575 110.236 20.1575C109.685 20.1575 109.213 20.2362 108.74 20.4724C108.346 20.7087 107.953 20.9449 107.638 21.3386C107.323 21.7323 107.165 22.126 107.008 22.6772C106.772 23.2283 106.693 23.7795 106.693 24.3307ZM118.583 29.1339H117.402V19.4488H118.583V21.2598C118.898 20.4724 119.291 19.9213 119.843 19.6063C120.394 19.2913 121.024 19.1339 121.89 19.1339V20.315C121.26 20.315 120.709 20.3937 120.236 20.6299C119.843 20.8661 119.449 21.1024 119.213 21.4961C118.976 21.8898 118.819 22.2835 118.661 22.7559C118.583 23.2284 118.504 23.7795 118.504 24.3307V29.1339H118.583ZM124.646 24.5669C124.646 25.1181 124.724 25.5906 124.882 26.063C125.039 26.5354 125.276 26.9291 125.512 27.2441C125.827 27.5591 126.142 27.874 126.614 28.0315C127.008 28.2677 127.559 28.3465 128.11 28.3465C128.898 28.3465 129.528 28.189 130.079 27.7953C130.63 27.4016 131.024 26.8504 131.181 26.1417H132.52C132.362 26.6142 132.205 27.0079 131.969 27.4016C131.732 27.7953 131.417 28.1102 131.102 28.4252C130.787 28.7402 130.315 28.9764 129.843 29.1339C129.37 29.2913 128.819 29.3701 128.189 29.3701C127.402 29.3701 126.693 29.2126 126.063 28.9764C125.512 28.7402 124.961 28.3465 124.646 27.874C124.252 27.4016 124.016 26.8504 123.78 26.2992C123.622 25.6693 123.543 25.0394 123.543 24.3307C123.543 23.6221 123.622 22.9921 123.858 22.3622C124.095 21.7323 124.409 21.1811 124.803 20.7087C125.197 20.2362 125.669 19.8425 126.299 19.6063C126.85 19.3701 127.559 19.2126 128.268 19.2126C129.685 19.2126 130.787 19.685 131.575 20.5512C132.362 21.4961 132.756 22.8346 132.756 24.5669H124.646ZM131.26 23.6221C131.26 23.1496 131.181 22.6772 131.024 22.2835C130.866 21.8898 130.709 21.4961 130.394 21.1811C130.158 20.8661 129.764 20.6299 129.37 20.4724C128.976 20.315 128.504 20.2362 127.953 20.2362C127.402 20.2362 127.008 20.315 126.535 20.5512C126.142 20.7087 125.827 21.0236 125.512 21.2598C125.197 21.5748 125.039 21.9685 124.803 22.3622C124.646 22.7559 124.488 23.2284 124.488 23.7008H131.26V23.6221ZM135.433 26.1417C135.591 27.0079 135.984 27.5591 136.457 27.874C136.929 28.189 137.638 28.4252 138.504 28.4252C138.898 28.4252 139.291 28.3465 139.606 28.2677C139.921 28.189 140.158 28.0315 140.394 27.874C140.63 27.7165 140.787 27.4803 140.866 27.3228C140.945 27.0866 141.024 26.8504 141.024 26.6142C141.024 26.1417 140.866 25.8268 140.551 25.5906C140.236 25.3543 139.843 25.1969 139.37 25.0394C138.898 24.8819 138.347 24.8032 137.795 24.7244C137.244 24.6457 136.693 24.4882 136.221 24.3307C135.748 24.1732 135.354 23.8583 135.039 23.5433C134.724 23.2284 134.567 22.6772 134.567 22.0472C134.567 21.2598 134.882 20.5512 135.512 20.0787C136.142 19.5276 137.008 19.2913 138.11 19.2913C139.213 19.2913 140.079 19.5276 140.787 20C141.496 20.4724 141.89 21.2598 142.047 22.3622H140.866C140.787 21.6535 140.472 21.1024 140 20.7874C139.528 20.4724 138.898 20.315 138.189 20.315C137.48 20.315 136.85 20.4724 136.457 20.7874C136.063 21.1024 135.906 21.4961 135.906 21.9685C135.906 22.4409 136.063 22.7559 136.378 22.9921C136.693 23.2284 137.087 23.3858 137.559 23.5433C138.032 23.7008 138.583 23.7795 139.134 23.937C139.685 24.0158 140.236 24.1732 140.709 24.4095C141.181 24.6457 141.575 24.8819 141.89 25.2756C142.205 25.5906 142.362 26.1417 142.362 26.7717C142.362 27.2441 142.284 27.6378 142.047 28.0315C141.811 28.4252 141.575 28.6614 141.181 28.8976C140.787 29.1339 140.394 29.2913 139.843 29.4488C139.37 29.6063 138.819 29.6063 138.189 29.6063C137.559 29.6063 137.087 29.5276 136.614 29.3701C136.142 29.2126 135.748 28.9764 135.433 28.6614C135.118 28.3465 134.882 28.0315 134.646 27.6378C134.488 27.2441 134.331 26.7717 134.331 26.378H135.433V26.1417ZM149.213 23.4646C149.449 23.4646 149.685 23.3858 150 23.3858C150.315 23.3071 150.551 23.2284 150.787 23.1496C150.945 23.0709 151.102 22.9134 151.181 22.6772C151.26 22.4409 151.26 22.2835 151.26 22.126C151.26 21.5748 151.102 21.1024 150.709 20.7087C150.315 20.315 149.685 20.1575 148.74 20.1575C148.346 20.1575 147.953 20.1575 147.638 20.2362C147.323 20.315 147.008 20.3937 146.772 20.6299C146.535 20.7874 146.299 21.0236 146.142 21.3386C145.984 21.6535 145.906 21.9685 145.827 22.3622H144.646C144.646 21.811 144.803 21.3386 145.039 20.8661C145.276 20.4724 145.591 20.1575 145.984 19.8425C146.378 19.6063 146.772 19.3701 147.244 19.2913C147.717 19.1339 148.268 19.1339 148.819 19.1339C149.291 19.1339 149.843 19.2126 150.236 19.2913C150.709 19.3701 151.102 19.5276 151.417 19.7638C151.732 20 152.047 20.315 152.205 20.7087C152.362 21.1024 152.52 21.5748 152.52 22.126V27.4016C152.52 27.874 152.598 28.1102 152.756 28.2677C152.913 28.4252 153.228 28.3465 153.78 28.189V29.0551C153.701 29.0551 153.543 29.1339 153.386 29.1339C153.228 29.2126 153.071 29.2126 152.835 29.2126C152.677 29.2126 152.441 29.2126 152.284 29.1339C152.126 29.1339 151.969 29.0551 151.811 28.9764C151.654 28.8976 151.575 28.7402 151.496 28.6614C151.417 28.5039 151.339 28.4252 151.339 28.2677C151.339 28.1102 151.339 27.9528 151.339 27.7953C150.866 28.3465 150.236 28.7402 149.606 28.9764C148.976 29.2126 148.268 29.3701 147.559 29.3701C147.087 29.3701 146.693 29.2913 146.299 29.2126C145.906 29.1339 145.512 28.8976 145.197 28.6614C144.882 28.4252 144.646 28.1102 144.488 27.7953C144.331 27.4803 144.252 27.0079 144.252 26.5354C144.252 24.8819 145.433 23.937 147.795 23.6221L149.213 23.4646ZM151.181 24.0945C150.709 24.3307 150.158 24.4095 149.685 24.4882C149.213 24.5669 148.661 24.5669 148.189 24.6457C147.323 24.7244 146.614 24.8819 146.063 25.1969C145.591 25.5118 145.276 25.9843 145.276 26.6929C145.276 27.0079 145.354 27.2441 145.433 27.4803C145.591 27.7165 145.748 27.874 145.906 28.0315C146.142 28.189 146.378 28.2677 146.614 28.3465C146.85 28.4252 147.165 28.4252 147.402 28.4252C147.874 28.4252 148.346 28.3465 148.74 28.2677C149.213 28.189 149.606 27.9528 149.921 27.7165C150.236 27.4803 150.551 27.1654 150.787 26.8504C151.024 26.4567 151.102 26.063 151.102 25.5906V24.0945H151.181ZM156.693 29.1339H155.512V19.4488H156.693V21.2598C157.008 20.4724 157.402 19.9213 157.953 19.6063C158.504 19.2913 159.134 19.1339 160 19.1339V20.315C159.37 20.315 158.819 20.3937 158.346 20.6299C157.953 20.8661 157.559 21.1024 157.323 21.4961C157.087 21.8898 156.929 22.2835 156.772 22.7559C156.693 23.2284 156.614 23.7795 156.614 24.3307V29.1339H156.693ZM162.047 17.3228V15.6693H163.307V17.3228H162.047ZM162.126 29.1339V19.4488H163.307V29.1339H162.126ZM170.945 23.4646C171.181 23.4646 171.417 23.3858 171.732 23.3858C172.047 23.3071 172.284 23.2284 172.52 23.1496C172.677 23.0709 172.835 22.9134 172.913 22.6772C172.992 22.4409 172.992 22.2835 172.992 22.126C172.992 21.5748 172.835 21.1024 172.441 20.7087C172.047 20.315 171.417 20.1575 170.472 20.1575C170.079 20.1575 169.685 20.1575 169.37 20.2362C169.055 20.315 168.74 20.3937 168.504 20.6299C168.268 20.7874 168.032 21.0236 167.874 21.3386C167.717 21.6535 167.638 21.9685 167.559 22.3622H166.378C166.378 21.811 166.535 21.3386 166.772 20.8661C167.008 20.4724 167.323 20.1575 167.717 19.8425C168.11 19.6063 168.504 19.3701 168.976 19.2913C169.449 19.1339 170 19.1339 170.551 19.1339C171.024 19.1339 171.575 19.2126 171.969 19.2913C172.441 19.3701 172.835 19.5276 173.15 19.7638C173.465 20 173.78 20.315 173.937 20.7087C174.095 21.1024 174.252 21.5748 174.252 22.126V27.4016C174.252 27.874 174.331 28.1102 174.488 28.2677C174.646 28.4252 174.961 28.3465 175.512 28.189V29.0551C175.433 29.0551 175.276 29.1339 175.118 29.1339C174.961 29.2126 174.803 29.2126 174.567 29.2126C174.409 29.2126 174.173 29.2126 174.016 29.1339C173.858 29.1339 173.701 29.0551 173.543 28.9764C173.386 28.8976 173.307 28.7402 173.228 28.6614C173.15 28.5039 173.071 28.4252 173.071 28.2677C173.071 28.1102 173.071 27.9528 173.071 27.7953C172.598 28.3465 171.969 28.7402 171.339 28.9764C170.709 29.2126 170 29.3701 169.291 29.3701C168.819 29.3701 168.425 29.2913 168.032 29.2126C167.638 29.1339 167.244 28.8976 166.929 28.6614C166.614 28.4252 166.378 28.1102 166.221 27.7953C166.063 27.4803 165.984 27.0079 165.984 26.5354C165.984 24.8819 167.165 23.937 169.528 23.6221L170.945 23.4646ZM172.913 24.0945C172.441 24.3307 171.89 24.4095 171.417 24.4882C170.945 24.5669 170.394 24.5669 169.921 24.6457C169.055 24.7244 168.346 24.8819 167.795 25.1969C167.323 25.5118 167.008 25.9843 167.008 26.6929C167.008 27.0079 167.087 27.2441 167.165 27.4803C167.323 27.7165 167.48 27.874 167.638 28.0315C167.874 28.189 168.11 28.2677 168.346 28.3465C168.583 28.4252 168.898 28.4252 169.134 28.4252C169.606 28.4252 170.079 28.3465 170.472 28.2677C170.945 28.189 171.339 27.9528 171.654 27.7165C171.969 27.4803 172.284 27.1654 172.52 26.8504C172.756 26.4567 172.835 26.063 172.835 25.5906V24.0945H172.913ZM177.323 29.1339V15.6693H178.504V29.1339H177.323ZM182.284 24.5669C182.284 25.1181 182.362 25.5906 182.52 26.063C182.677 26.5354 182.913 26.9291 183.15 27.2441C183.465 27.5591 183.78 27.874 184.252 28.0315C184.646 28.2677 185.197 28.3465 185.748 28.3465C186.535 28.3465 187.165 28.189 187.717 27.7953C188.268 27.4016 188.661 26.8504 188.819 26.1417H190.158C190 26.6142 189.843 27.0079 189.606 27.4016C189.37 27.7953 189.055 28.1102 188.74 28.4252C188.425 28.7402 187.953 28.9764 187.48 29.1339C187.008 29.2913 186.457 29.3701 185.827 29.3701C185.039 29.3701 184.331 29.2126 183.701 28.9764C183.15 28.7402 182.598 28.3465 182.284 27.874C181.89 27.4016 181.654 26.8504 181.417 26.2992C181.26 25.6693 181.181 25.0394 181.181 24.3307C181.181 23.6221 181.26 22.9921 181.496 22.3622C181.732 21.7323 182.047 21.1811 182.441 20.7087C182.835 20.2362 183.307 19.8425 183.937 19.6063C184.488 19.3701 185.197 19.2126 185.906 19.2126C187.323 19.2126 188.425 19.685 189.213 20.5512C190 21.4961 190.394 22.8346 190.394 24.5669H182.284ZM188.898 23.6221C188.898 23.1496 188.819 22.6772 188.661 22.2835C188.504 21.8898 188.346 21.4961 188.032 21.1811C187.795 20.8661 187.402 20.6299 187.008 20.4724C186.614 20.315 186.142 20.2362 185.591 20.2362C185.039 20.2362 184.646 20.315 184.173 20.5512C183.78 20.7087 183.465 21.0236 183.15 21.2598C182.835 21.5748 182.677 21.9685 182.441 22.3622C182.284 22.7559 182.126 23.2284 182.126 23.7008H188.898V23.6221ZM193.071 26.1417C193.228 27.0079 193.622 27.5591 194.095 27.874C194.567 28.189 195.276 28.4252 196.142 28.4252C196.535 28.4252 196.929 28.3465 197.244 28.2677C197.559 28.189 197.795 28.0315 198.032 27.874C198.268 27.7165 198.425 27.4803 198.504 27.3228C198.583 27.0866 198.661 26.8504 198.661 26.6142C198.661 26.1417 198.504 25.8268 198.189 25.5906C197.874 25.3543 197.48 25.1969 197.008 25.0394C196.535 24.8819 195.984 24.8032 195.433 24.7244C194.882 24.6457 194.331 24.4882 193.858 24.3307C193.386 24.1732 192.992 23.8583 192.677 23.5433C192.362 23.2284 192.205 22.6772 192.205 22.0472C192.205 21.2598 192.52 20.5512 193.15 20.0787C193.78 19.5276 194.646 19.2913 195.748 19.2913C196.85 19.2913 197.717 19.5276 198.425 20C199.134 20.4724 199.528 21.2598 199.685 22.3622H198.504C198.425 21.6535 198.11 21.1024 197.638 20.7874C197.165 20.4724 196.535 20.315 195.827 20.315C195.118 20.315 194.488 20.4724 194.095 20.7874C193.701 21.1024 193.543 21.4961 193.543 21.9685C193.543 22.4409 193.701 22.7559 194.016 22.9921C194.331 23.2284 194.724 23.3858 195.197 23.5433C195.669 23.7008 196.221 23.7795 196.772 23.937C197.323 24.0158 197.874 24.1732 198.347 24.4095C198.819 24.6457 199.213 24.8819 199.528 25.2756C199.843 25.5906 200 26.1417 200 26.7717C200 27.2441 199.921 27.6378 199.685 28.0315C199.449 28.4252 199.213 28.6614 198.819 28.8976C198.425 29.1339 198.032 29.2913 197.48 29.4488C197.008 29.6063 196.457 29.6063 195.827 29.6063C195.197 29.6063 194.724 29.5276 194.252 29.3701C193.78 29.2126 193.386 28.9764 193.071 28.6614C192.756 28.3465 192.52 28.0315 192.284 27.6378C192.126 27.2441 191.969 26.7717 191.969 26.378H193.071V26.1417Z" fill="white"/>
<path d="M70.315 33.2284C69.8426 33.2284 69.4489 32.8347 69.4489 32.3622V0.944893C69.4489 0.472452 69.8426 0.0787506 70.315 0.0787506C70.7874 0.0787506 71.1811 0.472452 71.1811 0.944893V32.441C71.1024 32.9134 70.7087 33.2284 70.315 33.2284Z" fill="white"/>
<path d="M16.8504 0.866136L0.23622 26.6929C0.0787401 26.9291 0 27.2441 0 27.559V31.6535C0 32.5197 0.708661 33.2283 1.5748 33.2283H5.03937C5.90551 33.2283 6.61417 32.5197 6.61417 31.6535V29.8425C6.61417 29.5276 6.69291 29.2126 6.85039 28.9764L17.0866 13.1496C17.5591 12.4409 18.5827 12.4409 19.0551 13.1496L29.1339 29.3701V31.6535C29.1339 32.5197 29.8425 33.2283 30.7087 33.2283H34.1732C35.0394 33.2283 35.748 32.5197 35.748 31.6535V27.4803C35.748 27.1653 35.6693 26.9291 35.5118 26.6142L19.5276 0.866136C18.8976 -0.157486 17.4803 -0.157486 16.8504 0.866136Z" fill="white"/>
<path d="M14.252 31.6535V29.7638C14.252 29.4488 14.3307 29.1339 14.4882 28.8976L24.5669 13.3071C25.1968 12.2835 26.6929 12.2835 27.3228 13.3071L37.0079 28.8976C37.1653 29.1339 37.2441 29.4488 37.2441 29.7638V31.6535C37.2441 32.5197 36.5354 33.3071 35.5905 33.3071H15.8268C14.9606 33.2283 14.252 32.5197 14.252 31.6535Z" fill="white"/>
<path d="M26.8504 0.0787506C27.2441 0.0787506 27.559 0.314972 27.7953 0.629932L38.8976 19.2126C39.2913 19.9213 38.8189 20.7874 37.9527 20.7874C37.559 20.7874 37.2441 20.5512 37.0079 20.2362L25.9842 1.73229C25.5118 1.02363 26.063 0.0787506 26.8504 0.0787506Z" fill="white"/>
<path d="M50.9448 0.0787506C51.3385 0.0787506 51.6535 0.314972 51.8897 0.629932L63.0708 19.2126C63.4645 19.9213 62.9921 20.7874 62.1259 20.7874C61.7322 20.7874 61.4173 20.5512 61.1811 20.2362L50 1.73229C49.6063 1.02363 50.1574 0.0787506 50.9448 0.0787506Z" fill="white"/>
<path d="M39.8425 8.4252C40.2362 8.4252 40.5512 8.66142 40.7874 8.97638L51.9685 27.5591C52.3622 28.2677 51.8898 29.1339 51.0236 29.1339C50.6299 29.1339 50.3149 28.8976 50.0787 28.5827L38.9764 10C38.5039 9.29134 39.0551 8.4252 39.8425 8.4252Z" fill="white"/>
<path d="M50.3937 12.5197C50.7874 12.5197 51.1024 12.7559 51.3386 13.0709L62.441 31.6536C62.8347 32.3622 62.3622 33.2284 61.4961 33.2284C61.1024 33.2284 60.7874 32.9921 60.5512 32.6772L49.4488 14.1732C49.0551 13.4646 49.5276 12.5197 50.3937 12.5197Z" fill="white"/>
</svg>
